<mxfile host="Electron" agent="Mozilla/5.0 (Windows NT 10.0; Win64; x64) AppleWebKit/537.36 (KHTML, like Gecko) draw.io/24.7.8 Chrome/128.0.6613.36 Electron/32.0.1 Safari/537.36" version="24.7.8">
  <diagram name="Page-1" id="5OE-TJhE8zVRZGr9SQH1">
    <mxGraphModel dx="1050" dy="655" grid="1" gridSize="10" guides="1" tooltips="1" connect="1" arrows="0" fold="1" page="1" pageScale="1" pageWidth="850" pageHeight="1100" math="0" shadow="0">
      <root>
        <mxCell id="0" />
        <mxCell id="1" parent="0" />
        <mxCell id="kOeY6bJKJXaW9cWby0th-12" value="" style="rounded=0;whiteSpace=wrap;html=1;fillColor=#d5e8d4;strokeColor=#82b366;" parent="1" vertex="1">
          <mxGeometry x="259.95" y="100" width="420.05" height="260" as="geometry" />
        </mxCell>
        <mxCell id="kOeY6bJKJXaW9cWby0th-15" value="&lt;font style=&quot;font-size: 16px;&quot;&gt;Printing Management Module&lt;/font&gt;" style="text;align=center;fontStyle=1;verticalAlign=middle;spacingLeft=3;spacingRight=3;strokeColor=none;rotatable=0;points=[[0,0.5],[1,0.5]];portConstraint=eastwest;html=1;" parent="1" vertex="1">
          <mxGeometry x="389.98" y="120" width="160" height="26" as="geometry" />
        </mxCell>
        <mxCell id="kOeY6bJKJXaW9cWby0th-44" value="Student" style="shape=umlActor;verticalLabelPosition=bottom;verticalAlign=top;html=1;points=[[0,0.3333333333333333,0,0,0],[0,0.6,0,-6,0],[0,1,0,-6,23],[0.25,0.1,0,0,0],[0.5,0,0,0,-16],[0.5,0,0,0,0],[0.5,0.5,0,0,0],[0.5,1,0,0,28],[0.75,0.1,0,0,0],[1,0.3333333333333333,0,0,0],[1,0.6,0,5,0],[1,1,0,5,23]];" parent="1" vertex="1">
          <mxGeometry x="200" y="164" width="30" height="60" as="geometry" />
        </mxCell>
        <mxCell id="kOeY6bJKJXaW9cWby0th-53" value="«system»&lt;br&gt;&lt;b&gt;Printers&lt;/b&gt;" style="html=1;whiteSpace=wrap;" parent="1" vertex="1">
          <mxGeometry x="720" y="175" width="110" height="50" as="geometry" />
        </mxCell>
        <mxCell id="kOeY6bJKJXaW9cWby0th-104" style="edgeStyle=none;shape=connector;rounded=0;orthogonalLoop=1;jettySize=auto;html=1;exitX=1;exitY=0.5;exitDx=0;exitDy=0;entryX=0;entryY=0.5;entryDx=0;entryDy=0;strokeColor=default;align=center;verticalAlign=middle;fontFamily=Helvetica;fontSize=11;fontColor=default;labelBackgroundColor=default;endArrow=none;endFill=0;" parent="1" source="kOeY6bJKJXaW9cWby0th-58" target="kOeY6bJKJXaW9cWby0th-53" edge="1">
          <mxGeometry relative="1" as="geometry" />
        </mxCell>
        <mxCell id="kOeY6bJKJXaW9cWby0th-58" value="Print documents" style="ellipse;whiteSpace=wrap;html=1;" parent="1" vertex="1">
          <mxGeometry x="550" y="170" width="110.05" height="60" as="geometry" />
        </mxCell>
        <mxCell id="kOeY6bJKJXaW9cWby0th-64" value="&lt;div&gt;&lt;/div&gt;&lt;div&gt;&lt;br&gt;&lt;/div&gt;&lt;div&gt;&lt;br&gt;&lt;/div&gt;" style="html=1;shape=mxgraph.sysml.useCaseExtPt;whiteSpace=wrap;align=center;fontFamily=Helvetica;fontSize=11;fontColor=default;labelBackgroundColor=default;" parent="1" vertex="1">
          <mxGeometry x="270" y="160" width="177.5" height="80" as="geometry" />
        </mxCell>
        <mxCell id="kOeY6bJKJXaW9cWby0th-65" value="Manage print operations" style="resizable=0;html=1;verticalAlign=middle;align=center;labelBackgroundColor=none;fontStyle=1;fontFamily=Helvetica;fontSize=11;fontColor=default;" parent="kOeY6bJKJXaW9cWby0th-64" connectable="0" vertex="1">
          <mxGeometry x="88.75" y="17" as="geometry">
            <mxPoint x="7" y="4" as="offset" />
          </mxGeometry>
        </mxCell>
        <mxCell id="kOeY6bJKJXaW9cWby0th-83" value="&lt;div&gt;extension points&lt;br&gt;&lt;/div&gt;&lt;div&gt;&lt;font style=&quot;font-size: 10px;&quot;&gt;Choose printing documents&lt;/font&gt;&lt;/div&gt;&lt;div&gt;&lt;font style=&quot;font-size: 10px;&quot;&gt;Choose viewing history&lt;/font&gt;&lt;/div&gt;" style="text;html=1;align=center;verticalAlign=middle;whiteSpace=wrap;rounded=0;fontFamily=Helvetica;fontSize=11;fontColor=default;labelBackgroundColor=none;" parent="kOeY6bJKJXaW9cWby0th-64" vertex="1">
          <mxGeometry x="-2.7734375" y="37" width="177.5" height="30" as="geometry" />
        </mxCell>
        <mxCell id="kOeY6bJKJXaW9cWby0th-71" value="" style="group;rotation=-180;direction=west;" parent="1" vertex="1" connectable="0">
          <mxGeometry x="469.95" y="175" width="60" height="30" as="geometry" />
        </mxCell>
        <mxCell id="kOeY6bJKJXaW9cWby0th-70" value="«extend»" style="text;html=1;align=center;verticalAlign=middle;whiteSpace=wrap;rounded=0;fontFamily=Helvetica;fontSize=11;fontColor=default;labelBackgroundColor=none;rotation=-360;" parent="kOeY6bJKJXaW9cWby0th-71" vertex="1">
          <mxGeometry width="60" height="30" as="geometry" />
        </mxCell>
        <mxCell id="kOeY6bJKJXaW9cWby0th-72" style="edgeStyle=none;shape=connector;rounded=0;orthogonalLoop=1;jettySize=auto;html=1;exitX=1;exitY=0.6;exitDx=5;exitDy=0;exitPerimeter=0;entryX=0;entryY=0.5;entryDx=0;entryDy=0;entryPerimeter=0;strokeColor=default;align=center;verticalAlign=middle;fontFamily=Helvetica;fontSize=11;fontColor=default;labelBackgroundColor=default;endArrow=none;endFill=0;" parent="1" source="kOeY6bJKJXaW9cWby0th-44" target="kOeY6bJKJXaW9cWby0th-64" edge="1">
          <mxGeometry relative="1" as="geometry" />
        </mxCell>
        <mxCell id="kOeY6bJKJXaW9cWby0th-66" style="edgeStyle=none;shape=connector;rounded=0;orthogonalLoop=1;jettySize=auto;html=1;exitX=0;exitY=0.5;exitDx=0;exitDy=0;strokeColor=default;align=center;verticalAlign=middle;fontFamily=Helvetica;fontSize=11;fontColor=default;labelBackgroundColor=default;endArrow=open;endFill=0;dashed=1;entryX=1;entryY=0.5;entryDx=0;entryDy=0;entryPerimeter=0;" parent="1" source="kOeY6bJKJXaW9cWby0th-58" target="kOeY6bJKJXaW9cWby0th-64" edge="1">
          <mxGeometry relative="1" as="geometry" />
        </mxCell>
        <mxCell id="RUfiBOBs_zwyfx15J8Dr-1" value="View printing history&amp;nbsp;" style="ellipse;whiteSpace=wrap;html=1;" parent="1" vertex="1">
          <mxGeometry x="414.95000000000005" y="280" width="110.05" height="60" as="geometry" />
        </mxCell>
        <mxCell id="RUfiBOBs_zwyfx15J8Dr-3" style="rounded=0;orthogonalLoop=1;jettySize=auto;html=1;exitX=0.5;exitY=0;exitDx=0;exitDy=0;entryX=0.855;entryY=0.855;entryDx=0;entryDy=0;entryPerimeter=0;dashed=1;endArrow=open;endFill=0;" parent="1" source="RUfiBOBs_zwyfx15J8Dr-1" target="kOeY6bJKJXaW9cWby0th-64" edge="1">
          <mxGeometry relative="1" as="geometry" />
        </mxCell>
        <mxCell id="RUfiBOBs_zwyfx15J8Dr-4" value="" style="group;rotation=-180;direction=west;" parent="1" vertex="1" connectable="0">
          <mxGeometry x="384.73" y="250" width="60" height="30" as="geometry" />
        </mxCell>
        <mxCell id="RUfiBOBs_zwyfx15J8Dr-5" value="«extend»" style="text;html=1;align=center;verticalAlign=middle;whiteSpace=wrap;rounded=0;fontFamily=Helvetica;fontSize=11;fontColor=default;labelBackgroundColor=none;rotation=-360;" parent="RUfiBOBs_zwyfx15J8Dr-4" vertex="1">
          <mxGeometry width="60" height="30" as="geometry" />
        </mxCell>
        <mxCell id="m66MDkxZynAlF29exDxL-2" style="rounded=0;orthogonalLoop=1;jettySize=auto;html=1;exitX=0;exitY=0.6;exitDx=-6;exitDy=0;exitPerimeter=0;entryX=1;entryY=0.5;entryDx=0;entryDy=0;endArrow=none;endFill=0;" parent="1" source="m66MDkxZynAlF29exDxL-1" target="kOeY6bJKJXaW9cWby0th-58" edge="1">
          <mxGeometry relative="1" as="geometry" />
        </mxCell>
        <mxCell id="m66MDkxZynAlF29exDxL-1" value="SPSO" style="shape=umlActor;verticalLabelPosition=bottom;verticalAlign=top;html=1;points=[[0,0.3333333333333333,0,0,0],[0,0.6,0,-6,0],[0,1,0,-6,23],[0.25,0.1,0,0,0],[0.5,0,0,0,-16],[0.5,0,0,0,0],[0.5,0.5,0,0,0],[0.5,1,0,0,28],[0.75,0.1,0,0,0],[1,0.3333333333333333,0,0,0],[1,0.6,0,5,0],[1,1,0,5,23]];" parent="1" vertex="1">
          <mxGeometry x="760" y="260" width="30" height="60" as="geometry" />
        </mxCell>
      </root>
    </mxGraphModel>
  </diagram>
</mxfile>
